<?xml version="1.0" encoding="utf-8"?>
<!-- Generator: Adobe Illustrator 24.2.1, SVG Export Plug-In . SVG Version: 6.00 Build 0)  -->
<svg version="1.1" id="Layer_1" xmlns="http://www.w3.org/2000/svg" xmlns:xlink="http://www.w3.org/1999/xlink" x="0px" y="0px"
	 viewBox="0 0 300 124" style="enable-background:new 0 0 300 124;" xml:space="preserve">
<style type="text/css">
	.st0{fill:#FFFFFF;}
</style>
<g>
	<g>
		<polygon class="st0" points="23.24,101.07 1.74,101.07 1.74,1.71 23.24,1.71 23.24,46.44 39.59,1.71 62.53,1.71 44.32,49.74 
			64.25,101.07 40.31,101.07 23.24,53.61 		"/>
	</g>
	<path class="st0" d="M151.06,7.23c-5.11-4.63-12.59-6.95-22.44-6.95c-9.85,0-17.3,2.32-22.37,6.95c-5.07,4.64-7.6,10.87-7.6,18.71
		v50.9c0,7.84,2.53,14.08,7.6,18.71c5.07,4.64,12.52,6.95,22.37,6.95c9.84,0,17.32-2.32,22.44-6.95c5.11-4.64,7.67-10.87,7.67-18.71
		v-50.9C158.73,18.1,156.18,11.86,151.06,7.23z M137.23,75.69c0,4.78-2.85,7.17-8.53,7.17c-5.69,0-8.53-2.39-8.53-7.17v-48.6
		c0-4.78,2.84-7.17,8.53-7.17c5.69,0,8.53,2.39,8.53,7.17V75.69z"/>
	<g>
		<path class="st0" d="M206.77,1.71h21.79v69.54c0,7.84-0.34,14.17-1,19c-0.67,4.83-2.01,10.63-4.01,17.42l-4.44,14.77h-22.8
			l4.3-14.77c4.11-14.05,6.17-26.14,6.17-36.27V1.71z"/>
	</g>
	<g>
		<rect x="277.31" y="1.71" class="st0" width="21.79" height="99.36"/>
	</g>
</g>
</svg>
