<?xml version="1.0" encoding="utf-8"?>
<!-- Generator: Adobe Illustrator 24.2.1, SVG Export Plug-In . SVG Version: 6.00 Build 0)  -->
<svg version="1.1" id="Layer_1" xmlns="http://www.w3.org/2000/svg" xmlns:xlink="http://www.w3.org/1999/xlink" x="0px" y="0px"
	 viewBox="0 0 438.01 599.03" style="enable-background:new 0 0 438.01 599.03;" xml:space="preserve">
<style type="text/css">
	.st0{fill:#ED1D26;}
	.st1{fill:#C1222F;}
	.st2{fill:#721723;}
	.st3{fill:#B21F2E;}
	.st4{fill:#FFFFFF;}
	.st5{fill:#E0E0E0;}
</style>
<g id="face_7_">
	<path id="face_8_" class="st0" d="M395.46,149.92h-0.04C392.05,63.7,310.1,6.95,218.78,6.95v0c-91.32,0-173.27,56.76-176.64,142.97
		h-0.04c-0.04,1.09-11.7,192.32-11.7,192.32c70.44,58.99,101.66,196.04,101.66,196.04c22.56,26.95,63.03,31.27,75.43,31.96h11.29v0
		h11.28c12.41-0.69,52.88-5.02,75.43-31.96c0,0,31.23-137.06,101.66-196.04C407.16,342.24,395.5,151.01,395.46,149.92z"/>
	<g id="face_shadows_4_">
		<path id="face_right_shadown_4_" class="st1" d="M395.42,149.92C392.05,63.7,310.1,6.95,218.78,6.95v563.3h11.29
			c12.41-0.69,52.88-5.02,75.43-31.96c0,0,31.23-137.06,101.66-196.04c0,0-11.66-191.23-11.7-192.32H395.42z"/>
		<path id="right_inner_shadow_4_" class="st2" d="M407.16,342.24c0,0-11.66-191.23-11.7-192.32h-0.04
			c-2.13-54.32-35.45-96.95-82.66-121.05c11.73,25.17,25.91,69.27,12.55,117.64c-20.7,74.88-40.58,142.63-40.58,142.63l-22.62,78.35
			l122.29-42.54l1.79,28.05l-94.89,54.91l-38.02,159.06c16.9-3.79,38.08-11.79,52.23-28.69
			C305.5,538.28,336.72,401.23,407.16,342.24z"/>
		<path id="left_inner_shadow_4_" class="st3" d="M42.13,149.92h-0.04c-0.04,1.09-11.7,192.32-11.7,192.32
			c70.44,58.99,101.66,196.04,101.66,196.04c22.56,26.95,59.9,31.05,72.3,31.75l-30.09-169.18L72.25,343.52l0.07-16.72l111.32,58.49
			l22.38-88.33c0,0-31.33-35.81-58.79-136.67c-14.64-53.79-13.59-109.34-11.82-136.43C82.65,46.77,44.42,91.61,42.13,149.92z"/>
	</g>
	<g id="face_plates_4_">
		<g id="right_4_">
			<path id="plate_8_" class="st4" d="M300.64,6.95c25.51,56.81,7.31,152.36,3.58,170.05c-18.41,87.41-54.62,128-54.62,128
				l12.5,62.49l115.25-64.34v43.51l-96.28,59.71l-48.44,186.66c19.53-1.91,56.26-8.45,78.25-30.91c0,0,36.06-135.32,117.4-193.56
				l-12.55-222.3C412.93,84.61,359.73,26.16,300.64,6.95z"/>
			<path id="shadow_4_" class="st5" d="M428.3,368.56l-12.55-222.3C412.93,84.61,359.73,26.16,300.64,6.95
				c0.02,0.03,0.03,0.07,0.04,0.1c45.14,44.42,31.23,151.35,27.19,168.61c-22.96,98.3-71.21,131.67-71.21,131.67l5.44,60.16
				l123.38-69.52l10.26,63.9l-99.05,51.84l-64.05,179.31c1.83-0.18,3.81-0.4,5.92-0.67c1.4-0.18,2.86-0.38,4.37-0.61
				c3.02-0.45,6.22-1.01,9.56-1.68c4.17-0.84,8.54-1.88,12.99-3.15c0.89-0.25,1.78-0.52,2.68-0.79c7.16-2.18,14.46-4.99,21.4-8.58
				c0.87-0.45,1.73-0.91,2.58-1.39c5.99-3.33,11.65-7.28,16.65-11.98c0.71-0.67,1.42-1.36,2.1-2.06c0,0,2.54-9.55,7.81-24.66
				c1.55-4.45,3.33-9.37,5.35-14.68c4.04-10.61,9.05-22.75,15.04-35.6c1.2-2.57,2.44-5.17,3.72-7.79c0.64-1.31,1.29-2.63,1.95-3.95
				C363.88,437.17,391.44,394.95,428.3,368.56z"/>
		</g>
		<g id="left_4_">
			<path id="plate_7_" class="st5" d="M60.2,346.66v-43.51l115.25,64.34l12.5-62.49c0,0-36.21-40.59-54.62-128
				c-3.73-17.69-21.93-113.24,3.58-170.05C77.83,26.16,24.63,84.61,21.81,146.26L9.26,368.56c81.34,58.24,117.4,193.56,117.4,193.56
				c21.99,22.46,58.72,29,78.25,30.91l-48.44-186.66L60.2,346.66z"/>
			<path id="highlight_4_" class="st4" d="M140.86,413.72l-99.05-51.84l10.26-63.9l123.38,69.52l5.44-60.16
				c0,0-48.25-33.37-71.21-131.67C105.64,158.4,91.73,51.47,136.87,7.05c0.02-0.03,0.03-0.07,0.05-0.1
				C77.83,26.16,24.63,84.61,21.81,146.26L9.26,368.56c36.86,26.39,64.42,68.61,83.54,106.89c0.66,1.32,1.31,2.64,1.95,3.95
				c1.28,2.62,2.52,5.22,3.72,7.79c6,12.85,11,24.98,15.04,35.6c2.02,5.31,3.8,10.23,5.35,14.68c5.26,15.11,7.81,24.66,7.81,24.66
				c0.69,0.7,1.39,1.39,2.1,2.06c5.01,4.7,10.67,8.65,16.65,11.98c0.86,0.48,1.72,0.94,2.58,1.39c6.94,3.6,14.24,6.4,21.4,8.59
				c0.9,0.27,1.79,0.54,2.68,0.79c4.45,1.27,8.82,2.3,12.99,3.15c3.33,0.68,6.54,1.23,9.56,1.68c1.51,0.23,2.97,0.43,4.37,0.61
				c2.11,0.27,4.09,0.49,5.92,0.67L140.86,413.72z"/>
		</g>
	</g>
</g>
</svg>
