<?xml version="1.0" encoding="utf-8"?>
<!-- Generator: Adobe Illustrator 24.2.1, SVG Export Plug-In . SVG Version: 6.00 Build 0)  -->
<svg version="1.1" id="Layer_1" xmlns="http://www.w3.org/2000/svg" xmlns:xlink="http://www.w3.org/1999/xlink" x="0px" y="0px"
	 viewBox="0 0 147.28 147.53" style="enable-background:new 0 0 147.28 147.53;" xml:space="preserve">
<style type="text/css">
	.st0{fill:#212121;}
	.st1{fill:#171717;}
	.st2{opacity:0.5;}
	.st3{display:none;}
	.st4{display:inline;fill:#BCBCBC;}
	.st5{display:inline;fill:#FFFFFF;}
	.st6{display:inline;fill:#E0E0E0;}
	.st7{fill:#ED1D26;}
	.st8{fill:#C1222F;}
	.st9{fill:#721723;}
	.st10{fill:#B21F2E;}
	.st11{fill:#FFFFFF;}
	.st12{fill:#E0E0E0;}
</style>
<g id="koji_logo_mark_2_">
	<g id="circle_3_">
		<ellipse class="st0" cx="74.82" cy="74.95" rx="72.45" ry="72.58"/>
		<path class="st1" d="M76.4,2.39v145.12c39.29-0.84,70.87-33,70.87-72.56C147.28,35.39,115.69,3.23,76.4,2.39z"/>
		<path class="st2" d="M96.71,15.79L64.45,129.26l36.62,13.36c27.04-10.53,46.21-36.86,46.21-67.67c0-15.55-4.89-29.96-13.2-41.77
			l-0.23-0.32c-0.01-0.01-0.02-0.03-0.03-0.04L96.71,15.79z"/>
	</g>
	<g class="st3">
		<path class="st4" d="M75.44,145.14c-38-0.76-68.67-31.95-68.67-70.19S37.45,5.51,75.44,4.76V0.02
			c-19.46,0.36-37.7,8.11-51.5,21.94C9.81,36.11,2.03,54.93,2.03,74.95s7.78,38.84,21.91,53c13.8,13.82,32.04,21.58,51.5,21.94
			V145.14z"/>
		<path class="st5" d="M75.44,145.15c-0.21,0-0.41,0.01-0.62,0.01c-38.64,0-70.08-31.5-70.08-70.21S36.18,4.74,74.82,4.74
			c0.21,0,0.41,0.01,0.62,0.01V0.01C75.24,0.01,75.03,0,74.82,0C54.84,0,36.05,7.8,21.91,21.95C7.78,36.11,0,54.93,0,74.95
			s7.78,38.84,21.91,53c14.13,14.16,32.92,21.95,52.91,21.95c0.21,0,0.41-0.01,0.62-0.01V145.15z"/>
		<path class="st5" d="M75.44,145.14c38-0.76,68.67-31.95,68.67-70.19S113.44,5.51,75.44,4.76V0.02c19.46,0.36,37.7,8.11,51.5,21.94
			c14.13,14.16,21.91,32.98,21.91,53s-7.78,38.84-21.91,53c-13.8,13.82-32.04,21.58-51.5,21.94V145.14z"/>
		<path class="st6" d="M75.44,145.15c0.21,0,0.41,0.01,0.62,0.01c38.64,0,70.08-31.5,70.08-70.21S114.71,4.74,76.06,4.74
			c-0.21,0-0.41,0.01-0.62,0.01V0.01c0.21,0,0.41-0.01,0.62-0.01c19.99,0,38.78,7.8,52.91,21.95c14.13,14.16,21.91,32.98,21.91,53
			s-7.78,38.84-21.91,53c-14.13,14.16-32.92,21.95-52.91,21.95c-0.21,0-0.41-0.01-0.62-0.01V145.15z"/>
	</g>
	<g id="face_9_">
		<path id="face_10_" class="st7" d="M111.73,44.14L111.73,44.14c-0.7-17.71-17.53-29.36-36.29-29.36v0
			c-18.76,0-35.59,11.66-36.28,29.37h-0.01c-0.01,0.22-2.4,39.5-2.4,39.5c14.47,12.11,20.88,40.26,20.88,40.26
			c4.63,5.53,12.95,6.42,15.49,6.56h2.32v0h2.32c2.55-0.14,10.86-1.03,15.49-6.56c0,0,6.41-28.15,20.88-40.26
			C114.14,83.64,111.74,44.37,111.73,44.14z"/>
		<g id="face_shadows_5_">
			<path id="face_right_shadown_5_" class="st8" d="M111.73,44.14c-0.69-17.71-17.52-29.36-36.28-29.36v115.69h2.32
				c2.55-0.14,10.86-1.03,15.49-6.56c0,0,6.41-28.15,20.88-40.26C114.14,83.64,111.74,44.37,111.73,44.14L111.73,44.14z"/>
			<path id="right_inner_shadow_5_" class="st9" d="M114.14,83.64c0,0-2.39-39.28-2.4-39.5h-0.01
				c-0.44-11.16-7.28-19.91-16.98-24.86c2.41,5.17,5.32,14.23,2.58,24.16c-4.25,15.38-8.34,29.29-8.34,29.29l-4.65,16.09l25.12-8.74
				l0.37,5.76L90.34,97.13l-7.81,32.67c3.47-0.78,7.82-2.42,10.73-5.89C93.26,123.91,99.67,95.76,114.14,83.64z"/>
			<path id="left_inner_shadow_5_" class="st10" d="M39.16,44.14L39.16,44.14c-0.02,0.22-2.41,39.5-2.41,39.5
				c14.47,12.11,20.88,40.26,20.88,40.26c4.63,5.53,12.95,6.42,15.49,6.56h0.6l-4.39-33.09L45.35,83.9l0.02-3.43l22.86,12.01
				l4.6-18.14c0,0-6.44-7.35-12.07-28.07c-3.01-11.05-2.79-22.46-2.43-28.02C47.49,22.96,39.63,32.16,39.16,44.14z"/>
		</g>
		<g id="face_plates_5_">
			<g id="right_5_">
				<path id="plate_10_" class="st11" d="M92.26,14.78c5.24,11.67,1.5,31.29,0.74,34.93c-3.78,17.95-11.22,26.29-11.22,26.29
					l2.57,12.83l23.67-13.21v8.94L88.24,96.81l-9.95,38.34c4.01-0.39,11.56-1.73,16.07-6.35c0,0,7.41-27.79,24.11-39.75l-2.58-45.66
					C115.32,30.73,104.39,18.72,92.26,14.78z"/>
				<path id="shadow_5_" class="st12" d="M118.48,89.05l-2.58-45.66c-0.58-12.66-11.51-24.67-23.64-28.61
					c0,0.01,0.01,0.01,0.01,0.02c9.27,9.12,6.41,31.08,5.59,34.63c-4.72,20.19-14.63,27.04-14.63,27.04l1.12,12.36l25.34-14.28
					l2.11,13.13L91.45,98.32l-13.15,36.83c0.38-0.04,0.78-0.08,1.22-0.14c0.29-0.04,0.59-0.08,0.9-0.12
					c0.62-0.09,1.28-0.21,1.96-0.35c0.86-0.17,1.75-0.39,2.67-0.65c0.18-0.05,0.37-0.11,0.55-0.16c1.47-0.45,2.97-1.02,4.39-1.76
					c0.18-0.09,0.36-0.19,0.53-0.28c1.23-0.68,2.39-1.5,3.42-2.46c0.15-0.14,0.29-0.28,0.43-0.42c0,0,0.52-1.96,1.6-5.07
					c0.32-0.91,0.68-1.93,1.1-3.02c0.83-2.18,1.86-4.67,3.09-7.31c0.25-0.53,0.5-1.06,0.76-1.6c0.13-0.27,0.26-0.54,0.4-0.81
					C105.25,103.14,110.91,94.47,118.48,89.05z"/>
			</g>
			<g id="left_5_">
				<path id="plate_9_" class="st12" d="M42.87,84.55v-8.94l23.67,13.21l2.57-12.83c0,0-7.44-8.34-11.22-26.29
					c-0.77-3.63-4.5-23.26,0.74-34.93C46.5,18.72,35.57,30.73,34.99,43.39l-2.58,45.66c16.71,11.96,24.11,39.75,24.11,39.75
					c4.52,4.61,12.06,5.96,16.07,6.35l-9.95-38.34L42.87,84.55z"/>
				<path id="highlight_5_" class="st11" d="M59.44,98.32L39.1,87.67l2.11-13.13l25.34,14.28l1.12-12.36c0,0-9.91-6.85-14.63-27.04
					c-0.83-3.54-3.69-25.51,5.59-34.63c0-0.01,0.01-0.01,0.01-0.02C46.5,18.72,35.57,30.73,34.99,43.39l-2.58,45.66
					c7.57,5.42,13.23,14.09,17.16,21.95c0.14,0.27,0.27,0.54,0.4,0.81c0.26,0.54,0.52,1.07,0.76,1.6c1.23,2.64,2.26,5.13,3.09,7.31
					c0.42,1.09,0.78,2.1,1.1,3.02c1.08,3.1,1.6,5.07,1.6,5.07c0.14,0.14,0.29,0.29,0.43,0.42c1.03,0.96,2.19,1.78,3.42,2.46
					c0.18,0.1,0.35,0.19,0.53,0.28c1.43,0.74,2.92,1.31,4.39,1.76c0.18,0.06,0.37,0.11,0.55,0.16c0.91,0.26,1.81,0.47,2.67,0.65
					c0.68,0.14,1.34,0.25,1.96,0.35c0.31,0.05,0.61,0.09,0.9,0.12c0.43,0.06,0.84,0.1,1.22,0.14L59.44,98.32z"/>
			</g>
		</g>
	</g>
</g>
</svg>
