<?xml version="1.0" encoding="utf-8"?>
<!-- Generator: Adobe Illustrator 24.2.1, SVG Export Plug-In . SVG Version: 6.00 Build 0)  -->
<svg version="1.1" id="Layer_1" xmlns="http://www.w3.org/2000/svg" xmlns:xlink="http://www.w3.org/1999/xlink" x="0px" y="0px"
	 viewBox="0 0 391.06 144.66" style="enable-background:new 0 0 391.06 144.66;" xml:space="preserve">
<style type="text/css">
	.st0{fill:#FFFFFF;}
	.st1{fill:#212121;}
	.st2{fill:#171717;}
	.st3{opacity:0.5;}
	.st4{fill:#ED1D26;}
	.st5{fill:#C1222F;}
	.st6{fill:#721723;}
	.st7{fill:#B21F2E;}
	.st8{fill:#E0E0E0;}
</style>
<g>
	<g>
		<path class="st0" d="M182.44,106.72h-16.26V31.58h16.26v33.83l12.36-33.83h17.35L198.38,67.9l15.07,38.82h-18.11l-12.9-35.89
			V106.72z"/>
		<path class="st0" d="M239.48,49.9c0-5.93,1.91-10.64,5.75-14.15c3.83-3.51,9.47-5.26,16.92-5.26c7.44,0,13.1,1.75,16.97,5.26
			c3.87,3.51,5.8,8.22,5.8,14.15v38.49c0,5.93-1.94,10.64-5.8,14.15c-3.87,3.51-9.53,5.26-16.97,5.26c-7.45,0-13.08-1.75-16.92-5.26
			c-3.83-3.51-5.75-8.22-5.75-14.15V49.9z M268.65,50.77c0-3.61-2.15-5.42-6.45-5.42c-4.3,0-6.45,1.81-6.45,5.42v36.76
			c0,3.62,2.15,5.42,6.45,5.42c4.3,0,6.45-1.81,6.45-5.42V50.77z"/>
		<path class="st0" d="M321.24,31.58h16.48v52.59c0,5.93-0.25,10.72-0.76,14.37c-0.51,3.65-1.52,8.04-3.04,13.17l-3.36,11.17h-17.24
			l3.25-11.17c3.11-10.63,4.66-19.77,4.66-27.43V31.58z"/>
		<path class="st0" d="M374.58,31.58h16.48v75.14h-16.48V31.58z"/>
	</g>
</g>
<g id="koji_logo_mark">
	<g id="circle">
		<ellipse class="st1" cx="73.08" cy="72.45" rx="72.08" ry="72.21"/>
		<path class="st2" d="M74.65,0.27v144.37c39.08-0.84,70.51-32.83,70.51-72.19C145.16,33.1,113.73,1.11,74.65,0.27z"/>
		<path class="st3" d="M94.86,13.59l-32.1,112.89l36.43,13.29c26.9-10.48,45.97-36.67,45.97-67.32c0-15.47-4.86-29.81-13.13-41.56
			l-0.22-0.32c-0.01-0.01-0.02-0.03-0.03-0.04L94.86,13.59z"/>
	</g>
	<g id="face_1_">
		<path id="face" class="st4" d="M109.07,41.89L109.07,41.89c-0.7-17.56-17.39-29.12-35.99-29.12v0c-18.6,0-35.29,11.56-35.98,29.12
			h-0.01c-0.01,0.22-2.38,39.17-2.38,39.17c14.35,12.01,20.71,39.93,20.71,39.93c4.59,5.49,12.84,6.37,15.36,6.51h2.3v0h2.3
			c2.53-0.14,10.77-1.02,15.36-6.51c0,0,6.36-27.92,20.71-39.93C111.45,81.06,109.08,42.11,109.07,41.89z"/>
		<g id="face_shadows">
			<path id="face_right_shadown" class="st5" d="M109.06,41.89c-0.69-17.56-17.38-29.12-35.98-29.12V127.5h2.3
				c2.53-0.14,10.77-1.02,15.36-6.51c0,0,6.36-27.92,20.71-39.93C111.45,81.06,109.08,42.11,109.06,41.89L109.06,41.89z"/>
			<path id="right_inner_shadow" class="st6" d="M111.45,81.06c0,0-2.37-38.95-2.38-39.17h-0.01c-0.43-11.06-7.22-19.75-16.84-24.66
				c2.39,5.13,5.28,14.11,2.56,23.96c-4.22,15.25-8.27,29.05-8.27,29.05L81.9,86.2l24.91-8.66l0.36,5.71L87.85,94.43l-7.74,32.4
				c3.44-0.77,7.76-2.4,10.64-5.84C90.74,120.99,97.1,93.07,111.45,81.06z"/>
			<path id="left_inner_shadow" class="st7" d="M37.1,41.89L37.1,41.89c-0.02,0.22-2.39,39.17-2.39,39.17
				c14.35,12.01,20.71,39.93,20.71,39.93c4.59,5.49,12.84,6.37,15.36,6.51h0.59l-4.35-32.81L43.23,81.32l0.02-3.41l22.67,11.91
				l4.56-17.99c0,0-6.38-7.29-11.97-27.84c-2.98-10.96-2.77-22.27-2.41-27.79C45.35,20.88,37.56,30.01,37.1,41.89z"/>
		</g>
		<g id="face_plates">
			<g id="right">
				<path id="plate_1_" class="st0" d="M89.75,12.77c5.2,11.57,1.49,31.03,0.73,34.64c-3.75,17.8-11.12,26.07-11.12,26.07L81.9,86.2
					l23.47-13.1v8.86L85.77,94.12l-9.87,38.02c3.98-0.39,11.46-1.72,15.94-6.29c0,0,7.34-27.56,23.91-39.42l-2.56-45.28
					C112.62,28.58,101.79,16.68,89.75,12.77z"/>
				<path id="shadow" class="st8" d="M115.75,86.42l-2.56-45.28c-0.57-12.56-11.41-24.46-23.45-28.38c0,0.01,0.01,0.01,0.01,0.02
					c9.19,9.05,6.36,30.83,5.54,34.34c-4.68,20.02-14.5,26.82-14.5,26.82L81.9,86.2l25.13-14.16l2.09,13.02L88.95,95.62L75.9,132.14
					c0.37-0.04,0.78-0.08,1.21-0.14c0.29-0.04,0.58-0.08,0.89-0.12c0.61-0.09,1.27-0.21,1.95-0.34c0.85-0.17,1.74-0.38,2.65-0.64
					c0.18-0.05,0.36-0.11,0.55-0.16c1.46-0.44,2.94-1.02,4.36-1.75c0.18-0.09,0.35-0.19,0.53-0.28c1.22-0.68,2.37-1.48,3.39-2.44
					c0.15-0.14,0.29-0.28,0.43-0.42c0,0,0.52-1.94,1.59-5.02c0.32-0.91,0.68-1.91,1.09-2.99c0.82-2.16,1.84-4.63,3.06-7.25
					c0.24-0.52,0.5-1.05,0.76-1.59c0.13-0.27,0.26-0.53,0.4-0.8C102.63,100.39,108.25,91.8,115.75,86.42z"/>
			</g>
			<g id="left">
				<path id="plate" class="st8" d="M40.78,81.96V73.1l23.48,13.1l2.55-12.73c0,0-7.38-8.27-11.12-26.07
					c-0.76-3.6-4.47-23.07,0.73-34.64c-12.03,3.91-22.87,15.82-23.45,28.38L30.4,86.42c16.57,11.86,23.91,39.42,23.91,39.42
					c4.48,4.57,11.96,5.91,15.94,6.29l-9.87-38.02L40.78,81.96z"/>
				<path id="highlight" class="st0" d="M57.21,95.62L37.03,85.06l2.09-13.02L64.25,86.2l1.11-12.25c0,0-9.83-6.8-14.5-26.82
					c-0.82-3.52-3.66-25.3,5.54-34.34c0-0.01,0.01-0.01,0.01-0.02c-12.03,3.91-22.87,15.82-23.45,28.38L30.4,86.42
					c7.51,5.38,13.12,13.97,17.02,21.77c0.13,0.27,0.27,0.54,0.4,0.8c0.26,0.53,0.51,1.06,0.76,1.59c1.22,2.62,2.24,5.09,3.06,7.25
					c0.41,1.08,0.77,2.08,1.09,2.99c1.07,3.08,1.59,5.02,1.59,5.02c0.14,0.14,0.28,0.28,0.43,0.42c1.02,0.96,2.17,1.76,3.39,2.44
					c0.17,0.1,0.35,0.19,0.53,0.28c1.41,0.73,2.9,1.3,4.36,1.75c0.18,0.06,0.36,0.11,0.55,0.16c0.91,0.26,1.8,0.47,2.65,0.64
					c0.68,0.14,1.33,0.25,1.95,0.34c0.31,0.05,0.6,0.09,0.89,0.12c0.43,0.05,0.83,0.1,1.21,0.14L57.21,95.62z"/>
			</g>
		</g>
	</g>
</g>
</svg>
